<svg width="351" height="371" viewBox="0 0 351 371" fill="none" xmlns="http://www.w3.org/2000/svg">
<path fill-rule="evenodd" clip-rule="evenodd" d="M292.371 249.237L243.349 370.61L122.267 321.674L165.071 215.696C168.505 207.194 178.18 203.086 186.679 206.521L292.371 249.237L292.371 249.237ZM90.769 167.549C124.205 181.063 140.359 219.131 126.85 252.577L126.747 252.83C113.238 286.277 75.1824 302.436 41.7465 288.922C8.31065 275.409 -7.84308 237.341 5.66577 203.895L5.76805 203.641C19.277 170.195 57.3333 154.036 90.769 167.549V167.549ZM208.733 49.3255L165.929 155.304C162.495 163.806 152.821 167.914 144.321 164.479L38.6291 121.763L87.6515 0.389893L208.733 49.3255V49.3255ZM350.047 106.438L301.025 227.811L195.333 185.095C186.834 181.66 182.727 171.983 186.161 163.481L228.966 57.5025L350.047 106.438Z" fill="url(#paint0_linear)"/>
<defs>
<linearGradient id="paint0_linear" x1="89.3282" y1="1.06754" x2="244.12" y2="368.903" gradientUnits="userSpaceOnUse">
<stop stop-color="#FF8F71"/>
<stop offset="1" stop-color="#FF3E55"/>
</linearGradient>
</defs>
</svg>
